<svg width="28" height="30" viewBox="0 0 28 30" fill="none" xmlns="http://www.w3.org/2000/svg">
<path d="M6.08547 14.5123C6.08547 13.7108 6.73521 13.061 7.5367 13.061H7.67698C8.47847 13.061 9.12821 13.7108 9.12821 14.5123C9.12821 15.3137 8.47847 15.9635 7.67698 15.9635H7.5367C6.73521 15.9635 6.08547 15.3137 6.08547 14.5123ZM27.3846 5.8049V26.1221C27.3846 27.7184 26.0154 29.0245 24.3419 29.0245H3.04274C1.35402 29.0245 0 27.7184 0 26.1221L0.0152137 5.8049C0.0152137 4.20855 1.35402 2.90245 3.04274 2.90245H3.11288C3.91437 2.90245 4.5641 2.25271 4.5641 1.45123C4.5641 0.649736 5.21384 0 6.01533 0H6.15561C6.9571 0 7.60684 0.649736 7.60684 1.45123C7.60684 2.25271 8.25657 2.90245 9.05806 2.90245H18.3266C19.128 2.90245 19.7778 2.25271 19.7778 1.45123C19.7778 0.649736 20.4275 0 21.229 0H21.3693C22.1708 0 22.8205 0.649736 22.8205 1.45123C22.8205 2.25271 23.4702 2.90245 24.2717 2.90245H24.3419C26.0154 2.90245 27.3846 4.20855 27.3846 5.8049ZM3.04274 7.25613C3.04274 8.05761 3.69247 8.70735 4.49396 8.70735H22.8907C23.6921 8.70735 24.3419 8.05761 24.3419 7.25613C24.3419 6.45464 23.6921 5.8049 22.8907 5.8049H4.49396C3.69247 5.8049 3.04274 6.45464 3.04274 7.25613ZM22.3419 26.1221C23.4464 26.1221 24.3419 25.2266 24.3419 24.1221V13.6098C24.3419 12.5052 23.4464 11.6098 22.3419 11.6098H5.04274C3.93817 11.6098 3.04274 12.5052 3.04274 13.6098V24.122C3.04274 25.2266 3.93817 26.1221 5.04274 26.1221H22.3419ZM18.2564 14.5123C18.2564 15.3137 18.9061 15.9635 19.7076 15.9635H19.8479C20.6494 15.9635 21.2991 15.3137 21.2991 14.5123C21.2991 13.7108 20.6494 13.061 19.8479 13.061H19.7076C18.9061 13.061 18.2564 13.7108 18.2564 14.5123ZM12.1709 14.5123C12.1709 15.3137 12.8207 15.9635 13.6222 15.9635H13.7624C14.5639 15.9635 15.2137 15.3137 15.2137 14.5123C15.2137 13.7108 14.5639 13.061 13.7625 13.061H13.6222C12.8207 13.061 12.1709 13.7108 12.1709 14.5123Z" fill="#464C54"/>
</svg>
